<?xml version="1.0" standalone="no"?>
<!DOCTYPE svg PUBLIC "-//W3C//DTD SVG 20010904//EN"
 "http://www.w3.org/TR/2001/REC-SVG-20010904/DTD/svg10.dtd">
<svg version="1.0" xmlns="http://www.w3.org/2000/svg"
 width="700.000000pt" height="700.000000pt" viewBox="0 0 700.000000 700.000000"
 preserveAspectRatio="xMidYMid meet">
<metadata>
Created by potrace 1.11, written by Peter Selinger 2001-2013
</metadata>
<g transform="translate(0.000000,700.000000) scale(0.100000,-0.100000)"
fill="#000000" stroke="none">
<path d="M1000 4000 l0 -3000 2500 0 2500 0 0 3000 0 3000 -2500 0 -2500 0 0
-3000z m338 2837 c65 -59 33 -183 -52 -205 -94 -25 -176 53 -155 147 20 92
134 123 207 58z m372 1 c49 -49 52 -121 6 -170 -101 -110 -273 22 -195 148 11
19 21 34 22 34 1 0 19 6 40 13 51 18 92 10 127 -25z m357 16 c35 -22 54 -59
55 -104 1 -80 -62 -129 -154 -121 -28 2 -77 51 -86 84 -29 111 91 203 185 141z
m3807 -3036 c-1 -1476 -2 -2685 -3 -2688 -1 -4 -473 -5 -491 -1 -3 0 -5 162
-4 359 0 196 -2 364 -5 372 -5 14 -74 15 -561 15 l-555 0 -5 -375 -5 -375 -50
0 c-27 -1 -55 0 -60 2 -7 2 -10 131 -10 373 1 204 -2 371 -5 371 -3 1 -256 2
-562 3 l-558 1 0 -375 0 -375 -62 0 -63 0 0 373 c0 242 -3 372 -10 373 -5 1
-257 2 -560 3 l-550 1 -5 -375 -5 -375 -300 0 c-165 -1 -304 1 -310 2 -7 2
-10 903 -9 2681 1 1472 2 2680 3 2685 0 4 1069 7 2374 7 l2372 0 -1 -2682z
m-3821 -2083 c40 -17 78 -82 71 -122 -9 -46 -32 -80 -68 -97 -43 -20 -69 -20
-113 1 -86 41 -87 174 -1 216 41 21 66 21 111 2z m1262 -5 c79 -49 74 -174 -9
-214 -43 -20 -69 -20 -111 0 -43 20 -66 56 -67 103 -1 102 102 163 187 111z
m1245 3 c35 -24 48 -42 60 -83 19 -67 -47 -150 -120 -150 -65 0 -130 69 -124
132 9 90 116 148 184 101z m-1812 -546 l-3 -62 -425 -1 c-234 0 -430 1 -436 3
-6 2 -10 16 -10 31 2 22 24 44 121 119 66 51 124 92 128 92 4 1 48 -27 97 -61
l89 -61 127 95 127 95 94 -94 94 -95 -3 -61z m1250 0 l-3 -62 -433 0 c-280 0
-432 4 -433 10 -3 15 0 57 3 59 2 1 56 42 121 90 133 100 119 98 215 26 91
-69 82 -70 185 7 51 37 94 70 97 73 3 3 18 15 34 26 l28 20 95 -93 94 -94 -3
-62z m1252 2 c0 -32 -3 -60 -7 -60 -27 -4 -863 -3 -864 1 -5 29 -5 51 0 58 9
11 239 182 247 182 4 0 45 -27 91 -61 47 -33 90 -58 97 -56 6 3 65 45 130 95
l119 89 94 -94 93 -94 0 -60z"/>
<path d="M2502 6000 l3 -125 995 0 995 0 3 125 3 125 -1001 0 -1001 0 3 -125z"/>
<path d="M2129 5615 c-1 -5 -2 -34 -3 -62 l-1 -53 1375 0 1376 0 -2 58 c-1 31
-2 59 -3 62 -2 10 -2741 5 -2742 -5z"/>
<path d="M2129 5370 c-1 -3 -2 -31 -3 -62 l-2 -58 1376 0 1376 0 -2 58 c-1 31
-2 59 -3 62 -1 7 -2741 7 -2742 0z"/>
<path d="M1750 4438 l0 -438 563 0 562 0 0 435 c0 239 -2 436 -5 436 -3 1
-256 2 -562 3 l-558 1 0 -437z m295 302 c97 -37 104 -180 11 -224 -43 -20 -69
-20 -110 -1 -88 42 -90 176 -4 218 38 19 66 21 103 7z m616 -401 l90 -91 -3
-61 -3 -62 -432 0 c-281 0 -433 4 -434 10 -4 34 -3 41 5 53 11 15 232 182 241
182 3 0 46 -28 95 -62 l89 -61 122 91 c67 51 126 92 131 92 5 0 49 -41 99 -91z"/>
<path d="M3000 4437 l0 -437 562 2 563 3 0 433 c0 237 -2 433 -5 433 -3 1
-256 2 -562 3 l-558 1 0 -438z m306 297 c88 -42 89 -176 1 -217 -44 -21 -70
-21 -113 -1 -86 41 -87 175 -2 217 42 21 71 21 114 1z m692 -548 l-3 -61 -432
0 c-238 0 -434 3 -434 8 -8 46 -2 53 106 136 60 46 117 89 127 94 13 9 31 0
86 -40 117 -86 96 -87 239 20 l126 94 94 -95 94 -95 -3 -61z"/>
<path d="M4250 4438 l0 -438 563 0 562 0 -1 423 c-1 232 -2 429 -3 437 -1 13
-70 15 -561 15 l-560 0 0 -437z m303 300 c33 -17 56 -47 67 -87 19 -69 -46
-151 -120 -151 -34 0 -87 29 -106 58 -21 32 -22 88 -1 128 27 53 109 79 160
52z m697 -547 c0 -38 -4 -60 -12 -63 -7 -2 -204 -4 -437 -3 l-425 0 -1 27 c-1
15 1 31 4 36 8 11 239 182 246 182 5 0 89 -57 170 -114 9 -7 49 17 141 86
l127 95 94 -94 93 -94 0 -58z"/>
<path d="M1750 3438 l0 -438 563 0 562 0 0 435 c0 239 -2 436 -5 436 -3 1
-256 2 -562 3 l-558 1 0 -437z m304 297 c58 -28 83 -100 57 -162 -40 -93 -179
-93 -221 0 -30 66 -8 130 55 161 38 20 69 20 109 1z m607 -396 l89 -90 0 -60
c0 -40 -4 -59 -12 -60 -57 -6 -858 -2 -859 4 -7 46 -1 53 116 144 66 51 124
93 128 93 4 0 48 -28 97 -62 l89 -61 93 69 c51 38 95 71 98 74 10 12 55 40 63
40 5 0 49 -41 98 -91z"/>
<path d="M3000 3437 l0 -437 562 2 563 3 0 433 c0 237 -2 433 -5 433 -3 1
-256 2 -562 3 l-558 1 0 -438z m311 296 c80 -47 81 -166 2 -213 -109 -64 -229
53 -170 167 30 56 112 79 168 46z m689 -547 l0 -61 -433 0 c-260 -1 -435 3
-439 9 -5 8 -1 59 5 61 1 1 55 40 119 88 64 48 120 87 124 87 4 0 45 -27 91
-61 47 -33 90 -58 97 -56 6 3 65 45 130 95 l119 89 94 -94 93 -95 0 -62z"/>
<path d="M4250 3438 l0 -438 563 0 562 0 0 435 c0 285 -3 435 -10 436 -5 1
-259 2 -562 3 l-553 1 0 -437z m298 301 c35 -12 72 -63 76 -106 6 -61 -61
-133 -124 -133 -34 0 -87 29 -106 58 -35 53 -12 146 43 175 35 18 71 20 111 6z
m702 -548 c0 -48 -3 -59 -17 -63 -10 -2 -207 -3 -437 -3 l-420 0 -1 27 c-1 15
1 31 4 35 9 12 239 183 246 183 7 0 126 -81 135 -91 3 -3 15 -11 28 -18 21
-11 34 -5 149 82 l126 94 94 -94 93 -94 0 -58z"/>
<path d="M1750 2438 l0 -438 563 0 562 0 -1 428 c-1 235 -2 432 -3 437 -1 7
-194 10 -561 10 l-560 0 0 -437z m295 302 c35 -13 53 -32 68 -72 15 -40 15
-54 -1 -93 -41 -95 -180 -97 -222 -2 -47 104 49 207 155 167z m703 -554 l-3
-61 -432 0 c-238 0 -433 2 -434 5 -8 47 -4 53 60 104 96 75 179 136 186 136 3
0 46 -28 95 -62 l89 -61 127 95 127 95 94 -94 94 -95 -3 -62z"/>
<path d="M3000 2437 l0 -437 563 2 562 3 0 435 0 435 -562 0 -563 0 0 -438z
m306 297 c94 -45 87 -187 -11 -224 -60 -23 -126 3 -154 59 -29 60 -11 126 43
161 38 24 77 25 122 4z m604 -395 l91 -92 -3 -61 -3 -61 -433 0 c-237 0 -433
3 -433 8 -8 46 -2 54 91 124 52 40 106 81 120 92 14 12 29 21 33 21 4 0 48
-28 97 -62 l89 -61 122 91 c67 51 126 92 131 92 4 0 48 -41 98 -91z"/>
<path d="M4250 2437 l0 -437 563 2 562 3 0 433 c0 237 -2 433 -5 433 -3 1
-256 2 -562 3 l-558 1 0 -438z m298 302 c39 -13 74 -68 74 -114 0 -64 -59
-125 -122 -125 -75 0 -139 81 -120 152 22 80 89 115 168 87z m700 -552 l-3
-62 -434 0 -435 0 -1 27 c-1 15 1 31 4 35 8 13 240 183 248 183 3 0 37 -22 74
-49 114 -83 93 -85 236 22 l126 94 94 -94 94 -95 -3 -61z"/>
<path d="M543 832 c-25 -20 -38 -61 -29 -97 7 -27 52 -55 89 -55 26 0 67 33
67 55 0 22 -14 18 -38 -10 -25 -29 -39 -31 -70 -9 -32 22 -30 78 3 100 23 15
65 12 65 -6 0 -12 29 -20 35 -10 3 5 -3 18 -15 30 -25 25 -77 26 -107 2z"/>
<path d="M1093 843 c-7 -3 -13 -11 -13 -18 0 -7 -6 -16 -12 -19 -10 -5 -10 -7
0 -12 6 -3 12 -23 12 -44 0 -21 3 -45 6 -54 7 -17 54 -22 54 -6 0 6 -7 10 -15
10 -11 0 -15 12 -15 45 0 33 4 45 15 45 8 0 15 5 15 10 0 6 -6 10 -14 10 -8 0
-16 8 -18 18 -2 11 -9 17 -15 15z"/>
<path d="M1400 818 c0 -25 -3 -29 -12 -20 -31 31 -88 -1 -88 -49 0 -47 25 -68
80 -67 l50 1 0 84 c0 67 -3 83 -15 83 -10 0 -15 -10 -15 -32z m-10 -47 c15
-30 12 -49 -11 -61 -25 -14 -49 2 -49 34 0 43 41 61 60 27z"/>
<path d="M1530 766 l0 -83 49 -1 c54 -2 70 10 77 57 7 42 -27 75 -67 67 -26
-5 -29 -3 -29 19 0 16 -6 25 -15 25 -12 0 -15 -16 -15 -84z m81 14 c23 -13 25
-53 3 -71 -33 -27 -72 33 -44 67 15 17 16 17 41 4z"/>
<path d="M1890 765 c0 -69 3 -85 15 -85 11 0 15 11 15 36 0 35 1 35 37 32 33
-3 39 -7 43 -32 3 -16 11 -31 18 -34 15 -5 17 59 1 75 -8 8 -8 13 0 17 16 10
13 42 -5 60 -10 11 -34 16 -70 16 l-54 0 0 -85z m105 55 c4 -6 3 -19 0 -30 -5
-16 -14 -20 -41 -18 -29 2 -34 6 -34 28 0 24 4 27 35 28 19 1 37 -3 40 -8z"/>
<path d="M2073 833 c-4 -10 -11 -22 -17 -26 -8 -6 -7 -10 2 -14 7 -3 12 -25
12 -59 0 -41 4 -54 15 -54 11 0 15 13 15 54 0 34 5 56 13 59 9 4 9 8 -2 15 -9
7 -10 12 -2 16 18 11 13 26 -9 26 -11 0 -24 -8 -27 -17z"/>
<path d="M2150 765 c0 -69 3 -85 15 -85 12 0 15 16 15 85 0 69 -3 85 -15 85
-12 0 -15 -16 -15 -85z"/>
<path d="M690 744 c0 -50 3 -64 15 -64 11 0 15 12 15 44 0 37 5 48 27 64 l26
19 -41 0 -42 0 0 -63z"/>
<path d="M790 790 c-56 -56 21 -143 86 -96 26 20 10 32 -21 16 -20 -11 -27
-11 -40 0 -23 19 -18 30 13 29 59 -3 72 0 65 19 -19 52 -67 68 -103 32z m68
-17 c2 -9 -7 -13 -28 -13 -28 0 -31 2 -20 15 15 18 41 16 48 -2z"/>
<path d="M929 790 c-23 -19 -23 -19 -3 -20 11 0 25 5 31 11 13 13 43 5 43 -10
0 -5 -18 -12 -40 -16 -27 -4 -41 -13 -45 -26 -11 -33 12 -48 69 -47 l53 1 -5
51 c-2 28 -9 57 -14 64 -15 18 -63 15 -89 -8z m71 -64 c0 -18 -39 -31 -52 -18
-15 15 0 32 28 32 14 0 24 -6 24 -14z"/>
<path d="M1180 788 c-25 -28 -26 -62 0 -88 24 -24 63 -26 85 -4 22 22 11 30
-20 14 -20 -11 -27 -11 -40 0 -24 20 -18 29 23 28 58 -1 62 1 55 20 -19 53
-68 68 -103 30z m68 -15 c2 -9 -7 -13 -28 -13 -28 0 -31 2 -20 15 15 18 41 16
48 -2z"/>
<path d="M1675 793 c34 -85 43 -122 31 -132 -7 -6 -16 -8 -19 -4 -4 3 -7 -1
-7 -10 0 -20 33 -23 48 -4 11 13 62 143 62 158 0 5 -6 9 -14 9 -7 0 -19 -20
-27 -47 l-13 -47 -19 47 c-11 26 -26 47 -34 47 -10 0 -13 -6 -8 -17z"/>
<path d="M2220 790 c-11 -11 -20 -31 -20 -45 0 -14 9 -34 20 -45 11 -11 31
-20 45 -20 14 0 34 9 45 20 11 11 20 31 20 45 0 14 -9 34 -20 45 -11 11 -31
20 -45 20 -14 0 -34 -9 -45 -20z m68 -12 c32 -32 -9 -96 -44 -67 -26 22 -11
79 21 79 6 0 16 -5 23 -12z"/>
<path d="M2350 744 c0 -49 3 -64 14 -64 11 0 16 14 18 48 2 38 7 49 26 57 33
15 27 22 -18 22 l-40 0 0 -63z"/>
<path d="M533 573 c-4 -10 -11 -22 -17 -26 -8 -6 -7 -10 2 -14 7 -3 12 -25 12
-59 0 -41 4 -54 15 -54 11 0 15 13 15 54 0 34 5 56 13 59 9 4 8 8 -3 16 -12 9
-12 11 3 17 9 3 14 10 11 15 -9 16 -44 10 -51 -8z"/>
<path d="M1120 505 c0 -69 3 -85 15 -85 12 0 15 14 15 63 l0 62 38 -62 c22
-38 44 -63 55 -63 15 0 17 11 17 85 0 69 -3 85 -15 85 -12 0 -15 -14 -15 -62
l0 -63 -38 62 c-22 38 -44 63 -54 63 -16 0 -18 -11 -18 -85z"/>
<path d="M1800 505 c0 -69 3 -85 15 -85 10 0 15 11 15 35 0 35 0 35 45 35 50
0 72 23 59 63 -10 31 -22 37 -81 37 l-53 0 0 -85z m88 59 c17 -3 22 -10 20
-27 -2 -18 -11 -23 -40 -25 -36 -3 -38 -2 -38 26 0 30 12 35 58 26z"/>
<path d="M2200 580 c0 -5 7 -10 15 -10 8 0 15 5 15 10 0 6 -7 10 -15 10 -8 0
-15 -4 -15 -10z"/>
<path d="M2563 583 c-7 -3 -13 -11 -13 -18 0 -7 -6 -16 -12 -18 -10 -4 -10 -7
-1 -14 6 -5 13 -31 15 -58 3 -46 5 -50 31 -53 29 -4 37 12 12 22 -10 3 -15 19
-15 46 0 29 4 40 15 40 8 0 15 5 15 10 0 6 -6 10 -14 10 -8 0 -16 8 -18 18 -2
11 -9 17 -15 15z"/>
<path d="M600 484 c0 -49 3 -64 14 -64 11 0 16 14 18 47 2 38 8 50 26 59 28
14 19 21 -25 22 l-33 1 0 -65z"/>
<path d="M700 530 c-11 -11 -20 -31 -20 -45 0 -14 9 -34 20 -45 11 -11 31 -20
45 -20 14 0 34 9 45 20 11 11 20 31 20 45 0 14 -9 34 -20 45 -11 11 -31 20
-45 20 -14 0 -34 -9 -45 -20z m68 -12 c32 -32 1 -89 -37 -68 -26 13 -28 55 -3
69 22 13 26 13 40 -1z"/>
<path d="M830 485 c0 -51 3 -65 15 -65 11 0 15 12 15 49 0 35 4 51 16 55 26
10 34 -3 34 -55 0 -37 4 -49 15 -49 11 0 15 12 15 49 0 35 4 51 16 55 26 10
34 -3 34 -55 0 -37 4 -49 15 -49 19 0 21 100 3 118 -14 14 -54 16 -63 2 -4 -6
-13 -5 -25 3 -16 9 -24 9 -40 -1 -12 -7 -20 -8 -20 -2 0 5 -7 10 -15 10 -12 0
-15 -14 -15 -65z"/>
<path d="M1306 528 c-33 -46 -4 -108 49 -108 14 0 34 9 45 20 11 11 20 31 20
45 0 57 -83 88 -114 43z m72 -10 c28 -28 2 -88 -33 -74 -22 8 -29 34 -17 62
13 26 31 31 50 12z"/>
<path d="M1440 496 c0 -63 10 -74 68 -73 l42 0 0 63 c0 50 -3 64 -15 64 -11 0
-15 -12 -15 -49 0 -35 -4 -51 -16 -55 -26 -10 -34 3 -34 55 0 37 -4 49 -15 49
-11 0 -15 -13 -15 -54z"/>
<path d="M1580 485 c0 -51 3 -65 15 -65 11 0 15 12 15 49 0 35 4 51 16 55 26
10 34 -3 34 -55 0 -38 4 -49 15 -49 13 0 15 11 13 56 -3 66 -23 88 -58 66 -12
-7 -20 -8 -20 -2 0 5 -7 10 -15 10 -12 0 -15 -14 -15 -65z"/>
<path d="M1960 484 c0 -49 3 -64 14 -64 11 0 16 14 18 47 2 39 7 50 28 60 14
7 23 13 20 14 -3 1 -22 3 -42 4 l-38 4 0 -65z"/>
<path d="M2062 534 c-45 -31 -14 -114 43 -114 14 0 34 9 45 20 58 58 -20 142
-88 94z m66 -16 c32 -32 1 -89 -37 -68 -26 13 -28 55 -3 69 22 13 26 13 40 -1z"/>
<path d="M2200 477 c0 -43 -5 -78 -12 -85 -16 -16 -1 -29 20 -16 24 16 31 174
7 174 -12 0 -15 -14 -15 -73z"/>
<path d="M2270 530 c-11 -11 -20 -31 -20 -45 0 -52 69 -85 104 -49 26 26 18
36 -15 19 -24 -13 -34 -14 -45 -4 -19 16 -18 31 4 28 50 -5 72 1 72 20 0 22
-35 51 -62 51 -10 0 -27 -9 -38 -20z m54 -6 c26 -10 18 -24 -14 -24 -30 0 -41
14 -17 23 6 3 13 6 14 6 1 1 8 -2 17 -5z"/>
<path d="M2410 530 c-27 -27 -26 -75 2 -94 30 -21 61 -20 81 2 21 23 21 32 2
32 -8 0 -15 -4 -15 -9 0 -15 -32 -22 -47 -10 -19 16 -13 59 10 73 14 8 21 8
30 -4 16 -20 37 -23 37 -5 0 35 -69 46 -100 15z"/>
</g>
</svg>
